<svg width="1440" height="892" viewBox="0 0 1440 892" fill="none" xmlns="http://www.w3.org/2000/svg">
<path d="M-39.5971 679.293L-15.5328 722.737C-13.3 726.768 -11.0076 729.498 -8.65548 730.926C-6.34475 732.28 -3.77109 732.172 -0.93451 730.6C0.633075 729.732 1.73668 728.73 2.37631 727.596C3.09059 726.42 3.41955 725.164 3.36322 723.83C3.38153 722.454 3.10985 720.995 2.54819 719.453C1.98652 717.91 1.27154 716.355 0.403241 714.788L-24.0952 670.56C-26.2039 666.753 -28.4137 664.172 -30.7244 662.818C-32.9605 661.423 -35.4968 661.511 -38.3334 663.082C-40.7967 664.447 -42.2414 666.417 -42.6673 668.995C-43.0186 671.53 -41.9952 674.963 -39.5971 679.293ZM-15.2013 666.804L7.93272 708.569C11.6953 715.362 13.122 721.107 12.2126 725.805C11.3366 730.388 8.09933 734.23 2.50081 737.331C-2.57518 740.142 -7.30042 740.857 -11.6749 739.476C-16.0907 738.02 -20.2833 733.709 -24.2527 726.543L-47.6348 684.33C-49.6195 680.747 -50.8628 677.534 -51.3648 674.69C-51.8335 671.731 -51.7515 669.149 -51.1188 666.945C-50.4529 664.625 -49.3148 662.629 -47.7048 660.957C-46.1361 659.21 -44.2321 657.716 -41.9927 656.476C-39.7533 655.236 -37.4771 654.414 -35.1641 654.01C-32.8925 653.533 -30.6341 653.647 -28.3889 654.355C-26.1103 654.946 -23.8783 656.246 -21.6927 658.254C-19.4324 660.222 -17.2686 663.071 -15.2013 666.804Z" fill="#AEA39E"/>
<path d="M-9.43291 640.695L22.0801 704.077C22.8399 705.605 23.6381 707.019 24.4747 708.318C25.3878 709.58 26.3777 710.612 27.4444 711.416C28.5496 712.106 29.7508 712.509 31.048 712.626C32.3453 712.744 33.7962 712.404 35.4008 711.606C38.5337 710.048 40.0649 707.953 39.9945 705.319C40.0005 702.648 39.1677 699.631 37.4961 696.269L6.04016 633.002L14.6363 628.728L45.5224 690.849C48.9415 697.726 50.0929 703.3 48.9766 707.572C47.8603 711.844 44.3603 715.442 38.4768 718.367C32.746 721.217 27.879 721.778 23.8759 720.052C19.9111 718.211 16.2952 714.005 13.028 707.434L-18.0291 644.969L-9.43291 640.695Z" fill="#AEA39E"/>
<path d="M53.2672 611.189L56.4108 618.336L45.0455 623.335L77.9756 698.205L69.4224 701.967L36.4923 627.097L25.127 632.096L21.9834 624.949L53.2672 611.189Z" fill="#AEA39E"/>
<path d="M108.804 635.291L131.394 627.776L133.738 634.82L111.147 642.336L108.804 635.291Z" fill="#AEA39E"/>
<path d="M197.107 621.496C192.996 610.871 189.58 601.796 186.857 594.272C184.117 586.664 182.325 581.555 181.482 578.945L180.983 579.056C181.196 580.407 181.488 582.703 181.858 585.942C182.21 589.098 182.59 592.773 182.998 596.966C183.406 601.158 183.786 605.62 184.138 610.349C184.574 615.06 184.982 619.646 185.362 624.108L197.107 621.496ZM219.173 654.092L209.677 656.203L199.455 629.104L186.46 631.993L188.81 660.843L179.439 662.927L172.61 572.657L186.854 569.49L219.173 654.092Z" fill="#AEA39E"/>
<path d="M231.933 608.343L226.372 609.236L232.08 644.749L237.767 643.835C241.979 643.158 244.543 641.363 245.458 638.45C246.457 635.524 246.563 631.617 245.778 626.731L244.742 620.285C244.282 617.421 243.657 615.144 242.867 613.456C242.077 611.768 241.138 610.493 240.048 609.631C239.043 608.756 237.84 608.258 236.437 608.137C235.12 608.003 233.618 608.072 231.933 608.343ZM225.784 569.271L220.097 570.185L225.255 602.285L231.321 601.311C234.607 600.782 236.769 599.441 237.805 597.287C238.912 595.035 239.067 591.423 238.268 586.452L237.334 580.639C236.616 576.173 235.463 573.031 233.874 571.212C232.272 569.309 229.575 568.662 225.784 569.271ZM247.209 583.2C248.103 588.761 247.944 593.151 246.733 596.371C245.592 599.492 243.622 601.754 240.822 603.154L240.883 603.533C242.397 603.809 243.846 604.224 245.232 604.779C246.618 605.334 247.889 606.254 249.046 607.537C250.274 608.723 251.316 610.37 252.174 612.479C253.102 614.491 253.823 617.097 254.338 620.299L255.089 624.975C255.59 628.092 255.727 631.095 255.5 633.984C255.344 636.775 254.676 639.345 253.498 641.695C252.391 643.948 250.668 645.866 248.33 647.452C246.077 649.024 243.096 650.108 239.389 650.704L223.845 653.202L209.627 564.737L224.793 562.3C230.775 561.339 235.61 562.117 239.299 564.636C242.975 567.07 245.402 571.952 246.579 579.282L247.209 583.2Z" fill="#AEA39E"/>
<path d="M264.54 576.852L269.494 626.268C269.953 630.853 270.981 634.267 272.578 636.508C274.166 638.664 276.574 639.581 279.8 639.257C281.583 639.079 282.993 638.594 284.029 637.804C285.149 637.006 285.947 635.983 286.422 634.734C286.982 633.477 287.309 632.03 287.402 630.391C287.495 628.752 287.452 627.041 287.273 625.258L282.231 574.95C281.797 570.62 280.786 567.377 279.197 565.22C277.694 563.055 275.329 562.135 272.102 562.458C269.301 562.739 267.195 563.979 265.786 566.179C264.462 568.37 264.047 571.927 264.54 576.852ZM291.885 575.012L296.647 622.518C297.421 630.244 296.463 636.086 293.772 640.044C291.158 643.908 286.667 646.159 280.299 646.797C274.525 647.376 269.901 646.167 266.428 643.17C262.946 640.089 260.796 634.473 259.979 626.322L255.167 578.306C254.758 574.231 254.885 570.787 255.546 567.977C256.284 565.073 257.379 562.733 258.831 560.958C260.359 559.09 262.192 557.705 264.332 556.805C266.463 555.819 268.802 555.199 271.349 554.944C273.897 554.688 276.312 554.832 278.596 555.375C280.872 555.833 282.902 556.83 284.685 558.367C286.545 559.81 288.082 561.885 289.297 564.594C290.597 567.294 291.46 570.766 291.885 575.012Z" fill="#AEA39E"/>
<path d="M312.183 553.186L315.123 623.909C315.194 625.614 315.347 627.23 315.581 628.758C315.901 630.282 316.384 631.628 317.03 632.797C317.759 633.877 318.691 634.735 319.828 635.371C320.965 636.007 322.428 636.288 324.219 636.214C327.714 636.068 329.967 634.779 330.976 632.346C332.07 629.909 332.539 626.814 332.383 623.063L329.448 552.468L339.04 552.069L341.922 621.385C342.241 629.059 341.02 634.618 338.26 638.064C335.499 641.51 330.836 643.369 324.271 643.642C317.877 643.908 313.204 642.437 310.252 639.228C307.382 635.932 305.794 630.617 305.489 623.285L302.591 553.585L312.183 553.186Z" fill="#AEA39E"/>
<path d="M379.466 551.69L379.471 559.498L367.055 559.505L367.102 641.297L357.758 641.302L357.711 559.51L345.295 559.518L345.29 551.71L379.466 551.69Z" fill="#AEA39E"/>
<path d="M419.716 595.139L443.513 595.877L443.282 603.298L419.486 602.559L419.716 595.139Z" fill="#AEA39E"/>
<path d="M508.409 607.851C506.824 596.57 505.563 586.955 504.625 579.009C503.688 570.977 503.107 565.594 502.88 562.861L502.369 562.855C502.268 564.22 502.03 566.521 501.654 569.76C501.278 572.913 500.812 576.578 500.254 580.753C499.697 584.929 499.051 589.359 498.318 594.045C497.67 598.732 497.023 603.29 496.377 607.721L508.409 607.851ZM522.475 644.614L512.747 644.509L508.962 615.794L495.651 615.649L491.372 644.277L481.773 644.173L495.672 554.718L510.264 554.876L522.475 644.614Z" fill="#AEA39E"/>
<path d="M540.738 601.327L535.107 601.436L535.804 637.397L541.563 637.286C545.829 637.203 548.618 635.783 549.93 633.027C551.328 630.269 551.978 626.415 551.883 621.467L551.756 614.94C551.7 612.039 551.398 609.698 550.852 607.916C550.305 606.134 549.553 604.741 548.594 603.735C547.721 602.728 546.599 602.067 545.227 601.752C543.941 601.436 542.444 601.294 540.738 601.327ZM540.1 561.78L534.341 561.892L534.971 594.397L541.114 594.278C544.441 594.214 546.768 593.187 548.095 591.199C549.506 589.123 550.162 585.568 550.065 580.534L549.951 574.647C549.863 570.126 549.16 566.853 547.84 564.831C546.519 562.722 543.939 561.706 540.1 561.78ZM559.372 578.562C559.482 584.193 558.712 588.518 557.063 591.537C555.499 594.469 553.232 596.433 550.264 597.43L550.272 597.814C551.732 598.297 553.11 598.911 554.404 599.654C555.699 600.397 556.83 601.485 557.796 602.917C558.846 604.262 559.649 606.039 560.204 608.247C560.842 610.368 561.193 613.05 561.256 616.292L561.348 621.027C561.409 624.184 561.126 627.177 560.498 630.005C559.953 632.747 558.934 635.199 557.44 637.362C556.029 639.438 554.055 641.098 551.519 642.342C549.068 643.584 545.965 644.242 542.212 644.315L526.47 644.62L524.734 555.036L540.091 554.739C546.149 554.621 550.828 556.067 554.13 559.076C557.43 561.999 559.152 567.172 559.296 574.594L559.372 578.562Z" fill="#AEA39E"/>
<path d="M577.495 573.529L580.437 623.106C580.71 627.706 581.599 631.158 583.104 633.462C584.603 635.681 586.971 636.695 590.208 636.503C591.997 636.396 593.425 635.97 594.492 635.222C595.644 634.47 596.483 633.48 597.008 632.252C597.619 631.019 598.004 629.586 598.164 627.952C598.323 626.319 598.35 624.607 598.244 622.818L595.249 572.347C594.991 568.003 594.112 564.721 592.613 562.502C591.198 560.278 588.873 559.262 585.636 559.454C582.825 559.621 580.671 560.775 579.174 562.915C577.762 565.05 577.202 568.588 577.495 573.529ZM604.892 572.801L607.721 620.461C608.181 628.213 606.986 634.011 604.137 637.856C601.368 641.61 596.789 643.677 590.4 644.056C584.608 644.4 580.037 643.004 576.688 639.869C573.334 636.649 571.414 630.95 570.929 622.773L568.07 574.601C567.828 570.512 568.094 567.077 568.869 564.296C569.725 561.424 570.914 559.131 572.436 557.416C574.039 555.612 575.927 554.303 578.101 553.49C580.271 552.592 582.633 552.067 585.188 551.915C587.744 551.764 590.152 552.005 592.412 552.641C594.667 553.191 596.655 554.27 598.374 555.877C600.174 557.395 601.626 559.531 602.73 562.286C603.919 565.037 604.64 568.542 604.892 572.801Z" fill="#AEA39E"/>
<path d="M617.249 550.973L624.408 621.394C624.58 623.092 624.829 624.696 625.154 626.207C625.564 627.709 626.127 629.024 626.842 630.152C627.633 631.187 628.615 631.988 629.788 632.555C630.961 633.122 632.439 633.315 634.221 633.133C637.702 632.779 639.874 631.358 640.736 628.869C641.682 626.371 641.966 623.254 641.586 619.519L634.44 549.225L643.991 548.254L651.008 617.274C651.784 624.915 650.898 630.537 648.348 634.142C645.798 637.746 641.255 639.881 634.718 640.545C628.35 641.192 623.598 640.003 620.46 636.977C617.398 633.857 615.496 628.647 614.753 621.346L607.698 551.944L617.249 550.973Z" fill="#AEA39E"/>
<path d="M679.731 543.046L680.819 550.778L668.524 552.508L679.921 633.502L670.668 634.804L659.272 553.81L646.977 555.54L645.889 547.808L679.731 543.046Z" fill="#AEA39E"/>
<path d="M722.422 578.79L745.76 574.08L747.229 581.357L723.891 586.067L722.422 578.79Z" fill="#AEA39E"/>
<path d="M811.194 569.414C806.729 558.933 803.01 549.978 800.038 542.549C797.044 535.037 795.082 529.991 794.152 527.411L793.656 527.539C793.915 528.882 794.283 531.166 794.762 534.392C795.22 537.534 795.723 541.194 796.271 545.371C796.819 549.547 797.348 553.993 797.859 558.708C798.452 563.402 799.013 567.972 799.543 572.418L811.194 569.414ZM834.339 601.252L824.919 603.681L813.795 576.939L800.904 580.263L804.22 609.017L794.924 611.414L785.074 521.424L799.204 517.781L834.339 601.252Z" fill="#AEA39E"/>
<path d="M842.907 554.132L837.494 555.689L847.443 590.254L852.978 588.661C857.078 587.481 859.407 585.39 859.964 582.388C860.603 579.363 860.237 575.472 858.868 570.716L857.063 564.442C856.26 561.654 855.365 559.47 854.378 557.889C853.39 556.309 852.303 555.156 851.118 554.432C850.015 553.684 848.76 553.335 847.353 553.384C846.029 553.41 844.547 553.66 842.907 554.132ZM832.09 516.087L826.554 517.68L835.547 548.924L841.451 547.225C844.65 546.304 846.633 544.712 847.402 542.448C848.23 540.079 847.948 536.475 846.555 531.637L844.926 525.979C843.675 521.632 842.152 518.652 840.355 517.038C838.535 515.342 835.78 515.025 832.09 516.087ZM855.039 527.33C856.597 532.743 856.968 537.12 856.154 540.462C855.399 543.699 853.716 546.181 851.105 547.909L851.212 548.278C852.747 548.369 854.236 548.606 855.679 548.99C857.121 549.374 858.494 550.133 859.798 551.268C861.159 552.297 862.393 553.806 863.499 555.797C864.663 557.682 865.693 560.182 866.59 563.298L867.9 567.85C868.773 570.884 869.271 573.848 869.394 576.743C869.576 579.533 869.223 582.165 868.337 584.64C867.51 587.009 866.031 589.122 863.901 590.978C861.854 592.811 859.026 594.246 855.418 595.285L840.288 599.639L815.505 513.535L830.265 509.287C836.088 507.611 840.982 507.8 844.948 509.856C848.89 511.829 851.888 516.383 853.941 523.517L855.039 527.33Z" fill="#AEA39E"/>
<path d="M868.659 518.769L883.577 566.14C884.961 570.535 886.663 573.667 888.683 575.536C890.677 577.323 893.221 577.73 896.314 576.756C898.023 576.218 899.304 575.457 900.157 574.472C901.091 573.462 901.664 572.298 901.875 570.979C902.167 569.634 902.192 568.15 901.949 566.527C901.707 564.904 901.316 563.237 900.778 561.528L885.591 513.303C884.284 509.152 882.633 506.182 880.639 504.395C878.726 502.582 876.223 502.162 873.13 503.136C870.444 503.982 868.636 505.625 867.704 508.066C866.854 510.48 867.173 514.048 868.659 518.769ZM895.056 511.396L909.396 556.935C911.729 564.342 911.981 570.257 910.153 574.68C908.381 578.995 904.442 582.114 898.338 584.036C892.803 585.779 888.03 585.538 884.019 583.312C879.982 581.004 876.733 575.944 874.273 568.13L859.779 522.102C858.548 518.195 857.971 514.799 858.046 511.912C858.177 508.919 858.772 506.405 859.831 504.372C860.947 502.231 862.46 500.502 864.371 499.185C866.256 497.786 868.42 496.702 870.862 495.933C873.304 495.164 875.698 494.813 878.045 494.879C880.366 494.863 882.556 495.426 884.616 496.567C886.73 497.601 888.658 499.32 890.4 501.724C892.222 504.102 893.774 507.326 895.056 511.396Z" fill="#AEA39E"/>
<path d="M906.28 485.951L929.124 552.947C929.675 554.563 930.279 556.07 930.936 557.469C931.674 558.84 932.519 559.994 933.469 560.932C934.474 561.762 935.611 562.321 936.881 562.609C938.151 562.897 939.635 562.752 941.331 562.174C944.642 561.045 946.437 559.17 946.716 556.551C947.076 553.904 946.65 550.803 945.438 547.25L922.636 480.374L931.722 477.276L954.111 542.94C956.59 550.209 956.993 555.887 955.321 559.973C953.649 564.059 949.703 567.163 943.484 569.283C937.427 571.349 932.528 571.261 928.789 569.02C925.103 566.67 922.076 562.022 919.707 555.076L897.194 489.049L906.28 485.951Z" fill="#AEA39E"/>
<path d="M968.274 463.819L970.935 471.16L959.262 475.391L987.133 552.288L978.348 555.472L950.477 478.575L938.804 482.806L936.143 475.465L968.274 463.819Z" fill="#AEA39E"/>
<path d="M1023.59 488.247L1045.71 479.428L1048.46 486.324L1026.34 495.143L1023.59 488.247Z" fill="#AEA39E"/>
<path d="M1109.44 463.213C1103.21 453.677 1097.98 445.513 1093.75 438.721C1089.48 431.851 1086.66 427.227 1085.3 424.85L1084.83 425.063C1085.32 426.34 1086.08 428.524 1087.12 431.615C1088.12 434.629 1089.26 438.144 1090.53 442.159C1091.81 446.175 1093.11 450.459 1094.44 455.012C1095.84 459.529 1097.2 463.929 1098.5 468.214L1109.44 463.213ZM1137.81 490.496L1128.97 494.54L1113.32 470.165L1101.22 475.698L1109.52 503.425L1100.79 507.415L1075.31 420.548L1088.58 414.483L1137.81 490.496Z" fill="#AEA39E"/>
<path d="M1136.35 443.251L1131.31 445.764L1147.36 477.953L1152.52 475.383C1156.33 473.479 1158.25 471.001 1158.25 467.948C1158.33 464.856 1157.26 461.096 1155.06 456.667L1152.14 450.825C1150.85 448.228 1149.57 446.243 1148.31 444.867C1147.06 443.492 1145.78 442.556 1144.48 442.058C1143.26 441.522 1141.96 441.406 1140.59 441.71C1139.29 441.976 1137.88 442.489 1136.35 443.251ZM1118.82 407.798L1113.66 410.368L1128.17 439.464L1133.67 436.722C1136.65 435.237 1138.31 433.312 1138.66 430.946C1139.04 428.466 1138.11 424.973 1135.86 420.468L1133.24 415.198C1131.22 411.151 1129.18 408.496 1127.12 407.235C1125.02 405.897 1122.26 406.084 1118.82 407.798ZM1143.43 414.695C1145.94 419.735 1147.1 423.972 1146.9 427.406C1146.75 430.726 1145.54 433.473 1143.29 435.645L1143.46 435.989C1144.99 435.8 1146.49 435.764 1147.98 435.88C1149.47 435.996 1150.96 436.494 1152.44 437.373C1153.97 438.138 1155.46 439.399 1156.91 441.156C1158.39 442.799 1159.86 445.071 1161.31 447.973L1163.42 452.211C1164.83 455.037 1165.85 457.862 1166.5 460.687C1167.18 463.397 1167.31 466.05 1166.89 468.644C1166.51 471.124 1165.44 473.47 1163.68 475.682C1162 477.855 1159.48 479.779 1156.12 481.455L1142.03 488.48L1102.05 408.294L1115.79 401.44C1121.21 398.737 1126.06 398.036 1130.33 399.339C1134.57 400.565 1138.34 404.499 1141.66 411.143L1143.43 414.695Z" fill="#AEA39E"/>
<path d="M1154.83 403.884L1178.69 447.443C1180.9 451.484 1183.18 454.225 1185.53 455.664C1187.83 457.029 1190.41 456.933 1193.25 455.375C1194.82 454.514 1195.93 453.518 1196.57 452.386C1197.29 451.214 1197.63 449.96 1197.58 448.625C1197.6 447.249 1197.34 445.789 1196.79 444.244C1196.23 442.699 1195.52 441.141 1194.66 439.569L1170.37 395.225C1168.28 391.408 1166.09 388.817 1163.78 387.452C1161.55 386.047 1159.02 386.122 1156.17 387.68C1153.7 389.033 1152.25 390.997 1151.81 393.572C1151.45 396.106 1152.45 399.543 1154.83 403.884ZM1179.29 391.512L1202.22 433.386C1205.95 440.196 1207.35 445.949 1206.42 450.643C1205.52 455.221 1202.27 459.047 1196.65 462.122C1191.56 464.909 1186.84 465.602 1182.47 464.2C1178.06 462.723 1173.89 458.392 1169.95 451.207L1146.77 408.884C1144.8 405.291 1143.57 402.072 1143.09 399.226C1142.63 396.264 1142.73 393.683 1143.37 391.482C1144.05 389.166 1145.19 387.175 1146.81 385.51C1148.39 383.771 1150.3 382.286 1152.54 381.057C1154.79 379.827 1157.07 379.016 1159.38 378.624C1161.66 378.157 1163.92 378.282 1166.16 379C1168.43 379.602 1170.66 380.913 1172.84 382.932C1175.09 384.909 1177.24 387.769 1179.29 391.512Z" fill="#AEA39E"/>
<path d="M1184.46 364.543L1221.32 424.974C1222.21 426.431 1223.13 427.771 1224.07 428.993C1225.09 430.171 1226.16 431.114 1227.3 431.823C1228.46 432.415 1229.69 432.713 1230.99 432.718C1232.29 432.724 1233.71 432.26 1235.24 431.327C1238.23 429.505 1239.57 427.285 1239.27 424.668C1239.05 422.006 1237.96 419.072 1236.01 415.866L1199.21 355.545L1207.41 350.547L1243.53 409.775C1247.53 416.331 1249.16 421.786 1248.42 426.138C1247.67 430.49 1244.5 434.376 1238.89 437.798C1233.42 441.13 1228.62 442.109 1224.49 440.735C1220.38 439.242 1216.41 435.364 1212.59 429.098L1176.27 369.542L1184.46 364.543Z" fill="#AEA39E"/>
<path d="M1237.14 330.24L1241.51 336.709L1231.22 343.661L1277.02 411.428L1269.28 416.66L1223.48 348.893L1213.2 355.846L1208.82 349.377L1237.14 330.24Z" fill="#AEA39E"/>
<path d="M1291.27 342.859L1309.7 327.791L1314.4 333.539L1295.96 348.607L1291.27 342.859Z" fill="#AEA39E"/>
<path d="M1363.08 292.148C1353.83 285.497 1346.01 279.765 1339.62 274.952C1333.16 270.079 1328.87 266.78 1326.74 265.054L1326.38 265.421C1327.3 266.436 1328.8 268.199 1330.88 270.709C1332.9 273.159 1335.22 276.029 1337.86 279.317C1340.49 282.605 1343.25 286.134 1346.13 289.902C1349.07 293.609 1351.91 297.226 1354.67 300.755L1363.08 292.148ZM1399.37 307.385L1392.57 314.343L1369.2 297.236L1359.9 306.758L1377.64 329.633L1370.93 336.5L1315.87 264.638L1326.07 254.2L1399.37 307.385Z" fill="#AEA39E"/>
<path d="M1381.67 261.999L1378.06 266.321L1405.65 289.388L1409.35 284.969C1412.09 281.695 1412.84 278.659 1411.62 275.86C1410.46 272.996 1407.98 269.977 1404.18 266.802L1399.17 262.616C1396.95 260.755 1394.98 259.446 1393.28 258.69C1391.57 257.934 1390.03 257.587 1388.64 257.65C1387.31 257.648 1386.07 258.062 1384.94 258.89C1383.85 259.654 1382.76 260.69 1381.67 261.999ZM1351.41 236.535L1347.71 240.954L1372.66 261.805L1376.6 257.091C1378.73 254.538 1379.48 252.108 1378.85 249.802C1378.21 247.375 1375.96 244.548 1372.1 241.319L1367.58 237.542C1364.11 234.642 1361.18 233.026 1358.79 232.694C1356.33 232.308 1353.87 233.588 1351.41 236.535ZM1376.72 233C1381.04 236.612 1383.8 240.031 1384.99 243.256C1386.18 246.36 1386.17 249.36 1384.98 252.253L1385.27 252.499C1386.6 251.715 1387.96 251.078 1389.37 250.588C1390.78 250.098 1392.35 249.959 1394.06 250.169C1395.77 250.259 1397.63 250.819 1399.66 251.849C1401.68 252.759 1403.94 254.254 1406.43 256.333L1410.06 259.371C1412.48 261.396 1414.55 263.573 1416.28 265.903C1417.99 268.113 1419.17 270.491 1419.82 273.037C1420.46 275.464 1420.42 278.042 1419.7 280.773C1419.03 283.438 1417.49 286.21 1415.08 289.091L1404.98 301.171L1336.24 243.706L1346.09 231.921C1349.97 227.273 1354.13 224.69 1358.57 224.172C1362.94 223.6 1367.97 225.694 1373.67 230.455L1376.72 233Z" fill="#AEA39E"/>
<path d="M1381.52 219.5L1422.09 248.142C1425.86 250.799 1429.11 252.26 1431.85 252.522C1434.52 252.735 1436.79 251.518 1438.66 248.869C1439.69 247.405 1440.25 246.023 1440.33 244.723C1440.46 243.353 1440.21 242.08 1439.58 240.903C1439 239.656 1438.12 238.461 1436.94 237.316C1435.77 236.172 1434.44 235.083 1432.98 234.05L1391.68 204.891C1388.12 202.381 1385.01 201.02 1382.34 200.806C1379.72 200.523 1377.47 201.706 1375.6 204.355C1373.98 206.656 1373.54 209.059 1374.27 211.564C1375.06 214 1377.48 216.646 1381.52 219.5ZM1398.05 197.639L1437.05 225.174C1443.4 229.652 1447.18 234.204 1448.41 238.83C1449.61 243.337 1448.37 248.205 1444.68 253.433C1441.33 258.173 1437.39 260.874 1432.85 261.534C1428.24 262.145 1422.59 260.088 1415.9 255.363L1376.48 227.533C1373.13 225.171 1370.61 222.819 1368.92 220.477C1367.21 218.017 1366.16 215.657 1365.77 213.397C1365.36 211.019 1365.52 208.726 1366.24 206.52C1366.89 204.265 1367.96 202.091 1369.43 200C1370.91 197.908 1372.6 196.178 1374.51 194.808C1376.35 193.39 1378.43 192.51 1380.76 192.17C1383.07 191.71 1385.64 191.909 1388.48 192.767C1391.38 193.554 1394.56 195.178 1398.05 197.639Z" fill="#AEA39E"/>
<path d="M1388.89 173.135L1450.15 208.589C1451.63 209.444 1453.07 210.182 1454.49 210.803C1455.95 211.351 1457.34 211.666 1458.68 211.747C1459.98 211.712 1461.2 211.385 1462.35 210.767C1463.49 210.149 1464.52 209.064 1465.41 207.513C1467.17 204.485 1467.29 201.892 1465.77 199.736C1464.3 197.505 1461.94 195.449 1458.7 193.568L1397.54 158.179L1402.35 149.87L1462.4 184.618C1469.04 188.465 1473.08 192.477 1474.51 196.656C1475.93 200.834 1475 205.766 1471.71 211.453C1468.51 216.993 1464.76 220.147 1460.47 220.918C1456.14 221.572 1450.81 220.061 1444.46 216.385L1384.08 181.444L1388.89 173.135Z" fill="#AEA39E"/>
<path d="M1416.87 118.946L1423.92 122.314L1418.56 133.515L1492.35 168.805L1488.31 177.235L1414.53 141.945L1409.17 153.146L1402.13 149.777L1416.87 118.946Z" fill="#AEA39E"/>
</svg>
