<svg width="162" height="115" viewBox="0 0 162 115" fill="none" xmlns="http://www.w3.org/2000/svg">
<circle cx="81" cy="75" r="39" stroke="#D3CEC5" stroke-width="2"/>
<path d="M78.813 55V80.1574H70L81.1484 95.2519L92.0324 80.1574H83.2195V55H78.813Z" fill="#D3CEC5"/>
<path d="M8.3681 84.1689C7.65986 84.3226 7.1368 84.7202 6.79892 85.3615C6.46103 86.0029 6.33424 86.7619 6.41854 87.6385C6.48018 88.2795 6.6378 88.8304 6.89141 89.2912C7.14456 89.7472 7.46551 90.0922 7.85426 90.3259C8.24255 90.5549 8.66763 90.6473 9.12952 90.6028C9.51599 90.5657 9.83943 90.4418 10.0998 90.2313C10.3551 90.0164 10.5605 89.7541 10.7162 89.4442C10.8672 89.1348 10.9862 88.8141 11.0732 88.4823C11.1555 88.151 11.2191 87.8475 11.264 87.5721L11.5185 86.0635C11.5812 85.677 11.6775 85.2444 11.8075 84.7657C11.937 84.2823 12.1322 83.8141 12.393 83.3609C12.6487 82.9034 12.9965 82.5132 13.4363 82.1903C13.8762 81.8673 14.4355 81.6732 15.1142 81.608C15.8965 81.5327 16.6232 81.6698 17.2942 82.0191C17.9647 82.3637 18.5238 82.9093 18.9714 83.6558C19.4185 84.3977 19.6955 85.3248 19.8025 86.437C19.9022 87.4739 19.8212 88.3879 19.5596 89.1789C19.2975 89.9651 18.888 90.6039 18.3311 91.095C17.7738 91.5815 17.1019 91.8911 16.3156 92.0238L16.1415 90.2139C16.6837 90.1142 17.1185 89.8869 17.4459 89.532C17.7681 89.1728 17.9926 88.7373 18.1194 88.2257C18.241 87.7098 18.2742 87.1643 18.2189 86.5893C18.1545 85.9201 17.9883 85.3296 17.7203 84.8178C17.4476 84.3066 17.1007 83.9142 16.6796 83.6408C16.2538 83.3678 15.7769 83.2566 15.249 83.3074C14.7683 83.3536 14.39 83.5256 14.1142 83.8232C13.8384 84.1209 13.6273 84.4979 13.481 84.9544C13.3346 85.4108 13.2152 85.9004 13.1227 86.423L12.7851 88.2535C12.5686 89.4159 12.1905 90.356 11.6507 91.0739C11.1109 91.7917 10.3531 92.1976 9.37752 92.2914C8.56687 92.3693 7.83882 92.2182 7.1934 91.8379C6.5428 91.4533 6.01438 90.9048 5.60814 90.1923C5.19673 89.4755 4.94661 88.6553 4.85778 87.7315C4.76804 86.7983 4.85558 85.9527 5.12041 85.1947C5.38053 84.4372 5.7777 83.8187 6.3119 83.3392C6.84566 82.855 7.47667 82.566 8.20493 82.4722L8.3681 84.1689Z" fill="white"/>
<path d="M11.9192 60.2189L11.5643 61.9442C11.0471 61.9441 10.5744 62.033 10.1463 62.2108C9.71912 62.384 9.34079 62.6252 9.0113 62.9345C8.67813 63.2382 8.40178 63.5946 8.18224 64.0038C7.96271 64.4131 7.80429 64.8542 7.70699 65.3273C7.52954 66.1899 7.58677 67.0162 7.87866 67.8062C8.17151 68.5915 8.69984 69.2778 9.46364 69.8652C10.2284 70.4479 11.2276 70.8661 12.4612 71.1199C13.6949 71.3736 14.778 71.3838 15.7107 71.1502C16.6443 70.912 17.4006 70.49 17.9797 69.884C18.5597 69.2733 18.9384 68.5367 19.1158 67.6741C19.2131 67.201 19.2417 66.7332 19.2015 66.2705C19.1613 65.8079 19.0504 65.3718 18.8688 64.9622C18.6835 64.547 18.4288 64.1756 18.1047 63.8479C17.7768 63.5146 17.3776 63.2463 16.907 63.0432L17.2619 61.3179C17.9633 61.5976 18.5663 61.9681 19.0707 62.4296C19.5752 62.8911 19.9767 63.4184 20.2753 64.0116C20.5692 64.6038 20.7551 65.239 20.8331 65.9173C20.9121 66.591 20.8776 67.2872 20.7298 68.0061C20.4798 69.2212 19.9607 70.2407 19.1725 71.0647C18.3842 71.8887 17.3871 72.4594 16.1809 72.7769C14.9748 73.0944 13.6204 73.0986 12.1178 72.7895C10.6152 72.4804 9.37241 71.942 8.38952 71.1742C7.40663 70.4064 6.71567 69.4885 6.31666 68.4202C5.91764 67.352 5.8431 66.2104 6.09305 64.9953C6.24092 64.2764 6.48407 63.6231 6.82252 63.0353C7.16191 62.4429 7.58582 61.9331 8.09424 61.5059C8.59803 61.0778 9.17276 60.7513 9.81843 60.5264C10.4595 60.3005 11.1597 60.1981 11.9192 60.2189Z" fill="white"/>
<path d="M24.5384 55.0796L11.7848 48.0855L14.148 43.7762C14.6945 42.7798 15.3132 42.0553 16.0042 41.6027C16.6911 41.1478 17.4136 40.9283 18.1716 40.9444C18.9295 40.9605 19.6843 41.1746 20.4357 41.5867C21.1871 41.9987 21.7692 42.5178 22.182 43.1437C22.5947 43.7697 22.793 44.4913 22.7767 45.3086C22.7564 46.1237 22.4753 47.0252 21.9334 48.0133L20.021 51.5006L18.6261 50.7356L20.5112 47.2982C20.8845 46.6173 21.0854 46.0147 21.1138 45.4902C21.1445 44.9616 21.0284 44.5037 20.7655 44.1166C20.5008 43.723 20.1131 43.3862 19.6024 43.1061C19.0918 42.8261 18.5931 42.6768 18.1064 42.6583C17.6198 42.6399 17.1577 42.7834 16.7202 43.0888C16.2785 43.392 15.8687 43.8882 15.4907 44.5774L14.0018 47.2925L25.3853 53.5352L24.5384 55.0796ZM22.1014 45.9346L29.5517 45.9379L28.5682 47.7313L21.1452 47.6782L22.1014 45.9346Z" fill="white"/>
<path d="M37.5776 26.6258C38.6373 27.735 39.3529 28.885 39.7242 30.0756C40.0956 31.2662 40.1414 32.4143 39.8616 33.5197C39.5819 34.6252 38.9935 35.6064 38.0965 36.4633C37.1996 37.3203 36.1925 37.8633 35.0755 38.0923C33.9584 38.3213 32.8137 38.2232 31.6412 37.7979C30.4687 37.3726 29.3526 36.6054 28.2929 35.4961C27.2332 34.3869 26.5176 33.237 26.1463 32.0463C25.7749 30.8557 25.7291 29.7076 26.0089 28.6022C26.2886 27.4967 26.877 26.5155 27.774 25.6586C28.6709 24.8016 29.678 24.2586 30.795 24.0296C31.9121 23.8006 33.0569 23.8987 34.2293 24.324C35.4018 24.7493 36.5179 25.5165 37.5776 26.6258ZM36.3451 27.8033C35.4751 26.8926 34.5885 26.2696 33.6852 25.9341C32.7854 25.5955 31.9233 25.5122 31.0989 25.6842C30.2779 25.853 29.549 26.2416 28.9122 26.85C28.2754 27.4583 27.8523 28.1704 27.6428 28.9861C27.4367 29.7985 27.4806 30.6635 27.7744 31.5811C28.0717 32.4955 28.6554 33.408 29.5254 34.3187C30.3954 35.2293 31.2803 35.854 32.1802 36.1927C33.0834 36.5281 33.9455 36.6114 34.7665 36.4426C35.5909 36.2705 36.3215 35.8803 36.9583 35.2719C37.5951 34.6636 38.0165 33.9532 38.2226 33.1408C38.4321 32.325 38.3882 31.46 38.091 30.5457C37.7971 29.6281 37.2152 28.7139 36.3451 27.8033Z" fill="white"/>
<path d="M49.3929 27.432L42.8855 14.4234L44.4608 13.6354L50.2691 25.2466L56.3161 22.2217L57.0152 23.6191L49.3929 27.432Z" fill="white"/>
<path d="M64.5059 21.0581L61.6654 6.79271L63.3929 6.44876L65.9282 19.1818L72.5594 17.8614L72.8645 19.3938L64.5059 21.0581Z" fill="white"/>
<path d="M114.966 29.5157L111.295 26.9325L119.666 15.0372L123.499 17.7348C124.653 18.5468 125.473 19.4798 125.959 20.5337C126.447 21.5838 126.598 22.7062 126.412 23.9008C126.228 25.0916 125.703 26.3027 124.837 27.534C123.965 28.7731 122.993 29.6846 121.922 30.2684C120.854 30.8484 119.729 31.0814 118.547 30.9676C117.368 30.8498 116.174 30.3659 114.966 29.5157ZM113.635 26.6684L115.772 28.1725C116.756 28.8646 117.704 29.2485 118.618 29.324C119.532 29.3996 120.394 29.1987 121.205 28.7213C122.015 28.2438 122.761 27.5211 123.443 26.5531C124.118 25.5928 124.543 24.6557 124.717 23.7418C124.894 22.8241 124.802 21.9601 124.44 21.1496C124.081 20.3353 123.437 19.6012 122.507 18.9472L120.207 17.3286L113.635 26.6684Z" fill="white"/>
<path d="M139.509 44.5557C138.274 45.466 137.043 46.0297 135.815 46.2469C134.587 46.4641 133.442 46.3637 132.381 45.9459C131.32 45.528 130.422 44.8198 129.685 43.8213C128.949 42.8228 128.539 41.755 128.453 40.6179C128.368 39.4808 128.611 38.3577 129.181 37.2488C129.752 36.1398 130.655 35.1301 131.89 34.2198C133.124 33.3095 134.356 32.7458 135.584 32.5286C136.812 32.3115 137.957 32.4118 139.018 32.8297C140.079 33.2475 140.977 33.9557 141.713 34.9542C142.45 35.9527 142.86 37.0205 142.946 38.1577C143.031 39.2948 142.788 40.4178 142.218 41.5268C141.647 42.6357 140.744 43.6454 139.509 44.5557ZM138.498 43.1837C139.512 42.4363 140.242 41.636 140.69 40.7826C141.14 39.9331 141.332 39.0885 141.266 38.2489C141.203 37.4132 140.91 36.6408 140.387 35.932C139.865 35.2231 139.212 34.7129 138.43 34.4016C137.65 34.094 136.786 34.0277 135.839 34.2027C134.894 34.3814 133.915 34.8445 132.901 35.5919C131.887 36.3392 131.155 37.1377 130.705 37.9872C130.258 38.8405 130.066 39.6851 130.129 40.5209C130.195 41.3605 130.489 42.1347 131.012 42.8436C131.534 43.5525 132.185 44.0607 132.965 44.3682C133.748 44.6796 134.611 44.7459 135.556 44.5672C136.503 44.3922 137.484 43.931 138.498 43.1837Z" fill="white"/>
<path d="M138.221 58.4963L151.089 50.6351L151.586 52.3544L141.05 58.5653L141.09 58.7018L153.33 58.3857L153.883 60.2961L143.362 66.5616L143.402 66.6981L155.627 66.3274L156.124 68.0467L141.046 68.2665L140.541 66.5199L150.784 60.2162L150.752 60.107L138.726 60.2429L138.221 58.4963Z" fill="white"/>
<path d="M156.018 91.215L141.51 90.1644L141.633 88.4644L153.596 81.3837L153.607 81.2421L142.216 80.4172L142.343 78.6605L156.851 79.711L156.728 81.4111L144.734 88.518L144.724 88.6597L156.143 89.4865L156.018 91.215Z" fill="white"/>
</svg>
